<svg xmlns="http://www.w3.org/2000/svg" viewBox="0 0 64 64">
  <rect x="0" y="0" width="64" height="64" rx="12" fill="#8c00c4"/>
  
  <path d="M16 12C16 9.79 17.79 8 20 8H38L48 18V52C48 54.21 46.21 56 44 56H20C17.79 56 16 54.21 16 52V12Z" fill="white" opacity="0.2"/>
  
  <path fill="#ffffff" d="M42.9,29.3c0.1-0.9,0.2-1.9,0.2-2.9c0-1-0.1-2-0.2-2.9l5.3-4.1c0.5-0.4,0.6-1.1,0.3-1.6 l-5-8.7c-0.3-0.5-1-0.7-1.6-0.5l-6.3,2.5c-1.3-1-2.8-1.8-4.3-2.5L30.3,2c-0.1-0.6-0.7-1-1.3-1h-10c-0.7,0-1.2,0.5-1.3,1.1 l-1,6.6c-1.6,0.6-3,1.5-4.3,2.5L6.1,9.7C5.5,9.5,4.8,9.7,4.5,10.2l-5,8.7C-0.8,19.5-0.7,20.2-0.2,20.6l5.3,4.1 c-0.1,0.9-0.2,1.9-0.2,2.9c0,1,0.1,2,0.2,2.9l-5.3,4.1c-0.5,0.4-0.6,1.1-0.3,1.6l5,8.7c0.3,0.5,1,0.7,1.6,0.5l6.3-2.5 c1.3,1,2.8,1.8,4.3,2.5l1,6.6c0.1,0.6,0.7,1.1,1.3,1.1h10c0.7,0,1.2-0.5,1.3-1.1l1-6.6c1.5-0.6,3-1.5,4.3-2.5l6.3,2.5 c0.6,0.2,1.2,0,1.6-0.5l5-8.7c0.3-0.5,0.2-1.2-0.3-1.6L42.9,29.3z M24,35c-4.8,0-8.6-3.9-8.6-8.6s3.9-8.6,8.6-8.6s8.6,3.9,8.6,8.6 S28.8,35,24,35z" transform="translate(8, 8) scale(0.75)"/>
</svg>